HIERARCHY
ROOT Hips
{
	OFFSET	0.00	0.00	0.00
	CHANNELS 6 Xposition Yposition Zposition Zrotation Xrotation Yrotation
	JOINT LeftHip
	{
		OFFSET	 3.430000	 0.000000	 0.000000
		CHANNELS 3 Zrotation Xrotation Yrotation
		JOINT LeftKnee
		{
			OFFSET	 0.000000	-18.469999	 0.000000
			CHANNELS 3 Zrotation Xrotation Yrotation
			JOINT LeftAnkle
			{
				OFFSET	 0.000000	-17.950001	 0.000000
				CHANNELS 3 Zrotation Xrotation Yrotation
				End Site 
				{
					OFFSET	 0.000000	-3.119996	 0.000000
				}
			}
		}
	}
	JOINT RightHip
	{
		OFFSET	-3.430000	 0.000000	 0.000000
		CHANNELS 3 Zrotation Xrotation Yrotation
		JOINT RightKnee
		{
			OFFSET	 0.000000	-18.809999	 0.000000
			CHANNELS 3 Zrotation Xrotation Yrotation
			JOINT RightAnkle
			{
				OFFSET	 0.000000	-17.570000	 0.000000
				CHANNELS 3 Zrotation Xrotation Yrotation
				End Site 
				{
					OFFSET	 0.000000	-3.250000	 0.000000
				}
			}
		}
	}
	JOINT Chest
	{
		OFFSET	 0.000000	 4.570000	 0.000000
		CHANNELS 3 Zrotation Xrotation Yrotation
		JOINT LeftCollar
		{
			OFFSET	 1.060000	 15.330000	 1.760000
			CHANNELS 3 Zrotation Xrotation Yrotation
			JOINT LeftShoulder
			{
				OFFSET	 5.810000	 0.000000	 0.000000
				CHANNELS 3 Zrotation Xrotation Yrotation
				JOINT LeftElbow
				{
					OFFSET	 0.000000	-12.080000	 0.000000
					CHANNELS 3 Zrotation Xrotation Yrotation
					JOINT LeftWrist
					{
						OFFSET	 0.000000	-9.820000	 0.000000
						CHANNELS 3 Zrotation Xrotation Yrotation
						End Site 
						{
							OFFSET	 0.000000	-7.369996	 0.000000
						}
					}
				}
			}
		}
		JOINT RightCollar
		{
			OFFSET	-1.060000	 15.330000	 1.760000
			CHANNELS 3 Zrotation Xrotation Yrotation
			JOINT RightShoulder
			{
				OFFSET	-6.060000	 0.000000	 0.000000
				CHANNELS 3 Zrotation Xrotation Yrotation
				JOINT RightElbow
				{
					OFFSET	 0.000000	-11.900000	 0.000000
					CHANNELS 3 Zrotation Xrotation Yrotation
					JOINT RightWrist
					{
						OFFSET	 0.000000	-9.520000	 0.000000
						CHANNELS 3 Zrotation Xrotation Yrotation
						End Site 
						{
							OFFSET	 0.000000	-7.140012	 0.000000
						}
					}
				}
			}
		}
		JOINT Neck
		{
			OFFSET	 0.000000	 17.620001	 0.000000
			CHANNELS 3 Zrotation Xrotation Yrotation
			JOINT Head
			{
				OFFSET	 0.000000	 5.190000	 0.000000
				CHANNELS 3 Zrotation Xrotation Yrotation
				End Site 
				{
					OFFSET	 0.000000	 4.140008	 0.000000
				}
			}
		}
	}
}

MOTION
Frames: 25
Frame Time: 0.033333
-28.5513 0.4834 -44.2763 16.3076 -0.323012 76.8782 6.41276 2.57783 8.01046 -0.738007 15.7651 5.13276 -7.1016 0.262379 -0.719807 -9.69756 12.9383 -15.3342 -1.36842 10.7152 -0.281712 5.21877 -12.6963 3.02565 2.31865 22.0455 3.78554 0 0 0 3.42041 -9.74297 5.58236 -11.1064 -9.55827 -7.55934 1.18031 -24.2645 -15.4612 0 0 0 -8.85511 -9.49482 8.50739 9.53468 -11.7603 3.98406 -14.9202 -30.2149 30.3239 0 0 0 -2.31536 -3.60737 14.5403 
-28.5504 0.4887 -44.2596 16.2971 -0.333932 76.893 6.46599 2.56833 8.02581 -0.728353 15.7445 5.13505 -7.13505 0.299874 -0.75571 -9.6342 12.944 -15.3518 -1.37956 10.7181 -0.277135 5.18786 -12.7281 2.99732 2.37433 22.0232 3.76185 0 0 0 3.4034 -9.71196 5.55465 -11.0971 -9.56582 -7.54481 1.16067 -24.2617 -15.4581 0 0 0 -8.85256 -9.4739 8.4803 9.52703 -11.7336 3.97366 -14.9063 -30.2023 30.3237 0 0 0 -2.33927 -3.61044 14.5239 
-28.5528 0.4863 -44.2426 16.2914 -0.351964 76.9014 6.52068 2.56741 8.04633 -0.720417 15.7213 5.13384 -7.16578 0.335268 -0.788713 -9.56798 12.9593 -15.3391 -1.38829 10.7151 -0.284562 5.15358 -12.7559 2.96843 2.4265 21.9959 3.74666 0 0 0 3.38308 -9.68349 5.52932 -11.0972 -9.56484 -7.53991 1.15816 -24.2539 -15.4518 0 0 0 -8.83332 -9.46497 8.44012 9.51622 -11.7066 3.96592 -14.8865 -30.1885 30.3254 0 0 0 -2.35469 -3.60521 14.5065 
-28.5545 0.4847 -44.2204 16.2827 -0.368443 76.9159 6.57322 2.56252 8.052 -0.710941 15.6988 5.13628 -7.20024 0.365562 -0.824117 -9.49479 12.9765 -15.308 -1.38147 10.7081 -0.323636 5.10498 -12.7864 2.9412 2.48504 21.9531 3.71749 0 0 0 3.35401 -9.65065 5.51022 -11.0821 -9.56256 -7.53956 1.15422 -24.2462 -15.4381 0 0 0 -8.79023 -9.46538 8.38192 9.51266 -11.6716 3.95715 -14.8881 -30.1877 30.3176 0 0 0 -2.37006 -3.59061 14.4991 
-28.5595 0.4872 -44.1777 16.2632 -0.390915 76.9577 6.67831 2.555 8.05136 -0.692526 15.6406 5.13159 -7.26341 0.441348 -0.881426 -9.33436 13.0117 -15.2905 -1.40157 10.6866 -0.372765 5.02048 -12.8472 2.87862 2.60308 21.8898 3.6517 0 0 0 3.31019 -9.5895 5.46672 -11.074 -9.56897 -7.54163 1.14848 -24.2264 -15.4206 0 0 0 -8.7342 -9.44967 8.29311 9.4993 -11.6094 3.93911 -14.8763 -30.1716 30.3146 0 0 0 -2.4157 -3.58344 14.4751 
-28.5645 0.4822 -44.1425 16.2537 -0.406726 76.997 6.77406 2.5577 8.04617 -0.687063 15.5851 5.12875 -7.32268 0.503533 -0.935036 -9.1877 13.0483 -15.2544 -1.41746 10.6858 -0.428938 4.93363 -12.9224 2.81556 2.70896 21.8197 3.57814 0 0 0 3.27681 -9.52693 5.43752 -11.0566 -9.56653 -7.53498 1.12543 -24.2112 -15.4014 0 0 0 -8.67248 -9.43453 8.20818 9.49628 -11.5683 3.92944 -14.8721 -30.1603 30.3102 0 0 0 -2.46484 -3.56808 14.4603 
-28.567 0.4721 -44.1023 16.2533 -0.429944 77.0444 6.87605 2.58648 8.03634 -0.687322 15.5207 5.12662 -7.37109 0.562216 -0.989848 -9.02822 13.0746 -15.171 -1.429 10.7202 -0.501045 4.82566 -13.0145 2.70975 2.81626 21.7469 3.50234 0 0 0 3.22164 -9.49091 5.39729 -11.0199 -9.54306 -7.52868 1.10492 -24.1837 -15.3787 0 0 0 -8.59083 -9.41595 8.12124 9.49747 -11.5518 3.92298 -14.8584 -30.1668 30.3199 0 0 0 -2.5049 -3.54842 14.4542 
-28.5695 0.4671 -44.0646 16.233 -0.434016 77.0809 6.95837 2.60274 8.03384 -0.685345 15.4548 5.1062 -7.42437 0.608002 -1.02966 -8.89454 13.0723 -15.0509 -1.42832 10.7918 -0.581993 4.72216 -13.1376 2.5812 2.90377 21.6595 3.44037 0 0 0 3.17056 -9.46788 5.35313 -10.9925 -9.5125 -7.52952 1.10472 -24.14 -15.3537 0 0 0 -8.50663 -9.39785 8.04224 9.5008 -11.5483 3.91885 -14.8179 -30.1812 30.3501 0 0 0 -2.53829 -3.53613 14.4538 
-28.5745 0.4545 -44.0245 16.2309 -0.438147 77.133 7.03493 2.62969 8.00058 -0.690509 15.3974 5.09762 -7.47266 0.647688 -1.06487 -8.76729 13.0852 -14.9453 -1.4186 10.8591 -0.660834 4.60487 -13.25 2.46136 2.98525 21.5902 3.3645 0 0 0 3.11556 -9.45134 5.30136 -10.9663 -9.4795 -7.53254 1.09735 -24.1104 -15.3332 0 0 0 -8.41627 -9.38494 8.00412 9.51074 -11.5478 3.91772 -14.7826 -30.1818 30.3722 0 0 0 -2.57662 -3.53693 14.4396 
-28.572 0.447 -43.9868 16.2207 -0.432367 77.1913 7.10634 2.65435 7.95449 -0.697541 15.3416 5.09097 -7.52446 0.676676 -1.09558 -8.66557 13.0849 -14.8688 -1.39383 10.9385 -0.74025 4.49518 -13.3647 2.36293 3.06204 21.5318 3.28572 0 0 0 3.05318 -9.45194 5.25403 -10.9188 -9.44409 -7.53744 1.08095 -24.0787 -15.3109 0 0 0 -8.32136 -9.36192 8.02761 9.51705 -11.5537 3.90188 -14.776 -30.1866 30.3873 0 0 0 -2.62225 -3.55073 14.4369 
-28.5669 0.437 -43.9567 16.2021 -0.418923 77.2281 7.17002 2.67088 7.92536 -0.715264 15.2951 5.09066 -7.56541 0.700966 -1.11848 -8.59108 13.0619 -14.8161 -1.38755 11.0226 -0.773266 4.41245 -13.4671 2.27056 3.10812 21.4909 3.25169 0 0 0 2.99644 -9.47533 5.18858 -10.8902 -9.4149 -7.53427 1.06617 -24.0313 -15.2974 0 0 0 -8.2538 -9.35141 8.09782 9.51299 -11.5626 3.88271 -14.7421 -30.1739 30.4179 0 0 0 -2.6698 -3.58994 14.4141 
-28.5569 0.4294 -43.9265 16.1782 -0.403685 77.2712 7.22839 2.66833 7.89121 -0.739674 15.2774 5.09417 -7.60707 0.70476 -1.14069 -8.55255 13.0225 -14.7943 -1.36295 11.1204 -0.788811 4.33962 -13.5631 2.19936 3.15027 21.4584 3.23581 0 0 0 2.92352 -9.50895 5.1031 -10.8481 -9.3787 -7.51999 1.03945 -23.9968 -15.3059 0 0 0 -8.19381 -9.3386 8.18531 9.50283 -11.56 3.87236 -14.7135 -30.1613 30.4377 0 0 0 -2.71484 -3.63948 14.3824 
-28.5343 0.4319 -43.8964 16.1266 -0.378506 77.2754 7.27913 2.64085 7.89684 -0.748443 15.2693 5.07894 -7.65838 0.701858 -1.15239 -8.53011 12.9694 -14.7686 -1.34438 11.1913 -0.779116 4.27729 -13.6478 2.13336 3.18869 21.4358 3.26518 0 0 0 2.83757 -9.5611 5.01088 -10.8269 -9.34079 -7.51612 1.0333 -23.953 -15.3151 0 0 0 -8.1585 -9.33936 8.27656 9.49043 -11.5438 3.85132 -14.6858 -30.162 30.4778 0 0 0 -2.77102 -3.71737 14.3476 
-28.5016 0.4344 -43.8688 16.0529 -0.356355 77.2437 7.32441 2.56978 7.92022 -0.756169 15.3036 5.06349 -7.70139 0.674867 -1.13788 -8.52741 12.9338 -14.8022 -1.32616 11.1961 -0.7356 4.25057 -13.6985 2.13691 3.21315 21.4104 3.32306 0 0 0 2.75471 -9.59632 4.93817 -10.8111 -9.31604 -7.51873 1.01629 -23.9274 -15.3323 0 0 0 -8.14263 -9.37588 8.38257 9.48166 -11.4938 3.83298 -14.6842 -30.1446 30.5019 0 0 0 -2.82423 -3.80311 14.3265 
-28.464 0.437 -43.8412 15.9682 -0.340996 77.1908 7.38439 2.49583 7.94719 -0.771019 15.3508 5.04441 -7.74248 0.628383 -1.10467 -8.52268 12.9031 -14.8522 -1.32512 11.1702 -0.685894 4.24724 -13.7305 2.17735 3.24838 21.3815 3.40275 0 0 0 2.65557 -9.6226 4.85517 -10.7674 -9.28893 -7.52027 0.974286 -23.9193 -15.3558 0 0 0 -8.15566 -9.42912 8.47422 9.46864 -11.448 3.81235 -14.7085 -30.1123 30.5149 0 0 0 -2.87966 -3.90093 14.3024 
-28.4238 0.442 -43.8211 15.8635 -0.320324 77.1247 7.43988 2.41287 7.99103 -0.78652 15.3936 5.011 -7.78905 0.577602 -1.05595 -8.52628 12.8608 -14.901 -1.3347 11.1451 -0.630083 4.26265 -13.7701 2.22539 3.28045 21.3348 3.49401 0 0 0 2.55593 -9.64212 4.76284 -10.7264 -9.26376 -7.5099 0.938112 -23.8962 -15.386 0 0 0 -8.19202 -9.50147 8.52703 9.45462 -11.3984 3.79832 -14.7258 -30.0926 30.5264 0 0 0 -2.92691 -3.99429 14.2904 
-28.3811 0.4495 -43.8036 15.7529 -0.286813 77.044 7.47758 2.3193 8.04023 -0.802221 15.4489 4.98017 -7.83097 0.516921 -1.00124 -8.54136 12.8151 -14.9473 -1.35441 11.1153 -0.564795 4.28609 -13.8124 2.27657 3.30012 21.2778 3.59828 0 0 0 2.46513 -9.6542 4.64381 -10.6975 -9.24351 -7.49143 0.910468 -23.875 -15.4151 0 0 0 -8.25931 -9.58519 8.52671 9.44339 -11.3611 3.79272 -14.7229 -30.0769 30.5389 0 0 0 -2.97402 -4.09696 14.2629 
-28.3359 0.4545 -43.786 15.653 -0.274267 76.97 7.5264 2.24051 8.08772 -0.817395 15.5091 4.93605 -7.86529 0.44664 -0.938228 -8.54122 12.7869 -14.9953 -1.37351 11.0784 -0.513061 4.31498 -13.8489 2.34325 3.34597 21.2156 3.67702 0 0 0 2.37328 -9.64948 4.54199 -10.6606 -9.21894 -7.48543 0.882333 -23.8666 -15.4361 0 0 0 -8.34168 -9.66139 8.49445 9.44365 -11.3393 3.80528 -14.7472 -30.0655 30.542 0 0 0 -3.01844 -4.18311 14.2546 
-28.2907 0.4596 -43.7709 15.5578 -0.253445 76.8806 7.56837 2.17405 8.13079 -0.842689 15.5704 4.90347 -7.89544 0.366858 -0.868618 -8.54307 12.7739 -15.0449 -1.40032 11.0479 -0.451263 4.34174 -13.903 2.41602 3.37997 21.1622 3.7601 0 0 0 2.29893 -9.65009 4.44117 -10.6323 -9.20153 -7.48759 0.854528 -23.8531 -15.4491 0 0 0 -8.43802 -9.7589 8.42985 9.44206 -11.3279 3.8035 -14.7513 -30.0432 30.5453 0 0 0 -3.05784 -4.26737 14.2388 
-28.2506 0.457 -43.7584 15.4837 -0.23904 76.8285 7.60699 2.12572 8.13293 -0.875027 15.6367 4.87826 -7.91876 0.282173 -0.79921 -8.54769 12.7809 -15.1179 -1.425 11.0329 -0.404985 4.38024 -13.9589 2.49636 3.42575 21.1081 3.79422 0 0 0 2.22579 -9.65285 4.33296 -10.5887 -9.18477 -7.48764 0.818897 -23.84 -15.4579 0 0 0 -8.54062 -9.86315 8.35718 9.44509 -11.3246 3.80682 -14.7574 -30.0171 30.5198 0 0 0 -3.09281 -4.33127 14.2235 
-28.2104 0.457 -43.7483 15.4277 -0.213787 76.8048 7.62182 2.10296 8.112 -0.890252 15.6916 4.84123 -7.95316 0.199384 -0.729004 -8.5526 12.7939 -15.1867 -1.46233 11.049 -0.351516 4.41962 -14.0368 2.54937 3.47139 21.0657 3.79474 0 0 0 2.16809 -9.6852 4.2093 -10.5436 -9.16174 -7.46942 0.791753 -23.8141 -15.4761 0 0 0 -8.64143 -9.95466 8.2725 9.44517 -11.3433 3.8137 -14.7569 -29.9982 30.5025 0 0 0 -3.1259 -4.38952 14.2099 
-28.1677 0.457 -43.7383 15.3769 -0.192349 76.7811 7.63892 2.09371 8.08303 -0.906728 15.7421 4.82498 -7.99363 0.116092 -0.674101 -8.54408 12.8263 -15.2413 -1.49715 11.0643 -0.308229 4.44567 -14.1341 2.588 3.51375 21.0246 3.77108 0 0 0 2.13318 -9.74196 4.11037 -10.5084 -9.13969 -7.45639 0.772646 -23.7887 -15.4858 0 0 0 -8.7225 -10.0413 8.22545 9.44217 -11.3558 3.81611 -14.7389 -29.9772 30.4907 0 0 0 -3.15584 -4.42437 14.2229 
-28.1275 0.4545 -43.7282 15.3402 -0.172871 76.7594 7.64998 2.09503 8.05782 -0.919745 15.791 4.80691 -8.0197 0.0372978 -0.6212 -8.5384 12.8592 -15.2789 -1.52684 11.0881 -0.27483 4.47369 -14.2269 2.61908 3.54516 21.0027 3.76506 0 0 0 2.1141 -9.81647 4.01955 -10.4824 -9.13347 -7.45484 0.750873 -23.7521 -15.4964 0 0 0 -8.78667 -10.1169 8.18289 9.43172 -11.3668 3.81881 -14.7264 -29.9597 30.4821 0 0 0 -3.18946 -4.46229 14.2181 
-28.0773 0.4495 -43.7131 15.2917 -0.155833 76.7358 7.67208 2.09947 8.04073 -0.944359 15.8346 4.79194 -8.03675 -0.0455977 -0.5725 -8.51271 12.8935 -15.2873 -1.5619 11.1113 -0.242343 4.49399 -14.3283 2.61706 3.56115 20.9368 3.77722 0 0 0 2.11902 -9.90471 3.95656 -10.4582 -9.11554 -7.46338 0.699973 -23.7283 -15.526 0 0 0 -8.82296 -10.1654 8.16655 9.43126 -11.364 3.82194 -14.7102 -29.9338 30.4827 0 0 0 -3.21117 -4.4648 14.2236 
-28.0296 0.447 -43.6981 15.2483 -0.122773 76.7249 7.66706 2.11706 8.0099 -0.950214 15.8621 4.77606 -8.06376 -0.126595 -0.524101 -8.49429 12.9314 -15.2692 -1.5894 11.1455 -0.238498 4.50489 -14.4408 2.59835 3.5566 20.8863 3.78772 0 0 0 2.13537 -10.009 3.8841 -10.4408 -9.11281 -7.45117 0.634341 -23.7084 -15.5702 0 0 0 -8.84225 -10.204 8.16683 9.421 -11.362 3.80967 -14.6666 -29.9142 30.499 0 0 0 -3.23636 -4.48549 14.2366 
